<svg width="16" height="16" viewBox="0 0 16 16" fill="none" xmlns="http://www.w3.org/2000/svg">
<path d="M16 8C16 12.4183 12.4183 16 8 16C3.58172 16 0 12.4183 0 8C0 3.58172 3.58172 0 8 0C12.4183 0 16 3.58172 16 8Z" fill="#2C6BC9"/>
<path d="M6.3923 7.88L8.01357 5L9.70077 7.88M6.3923 7.88H9.70077M6.3923 7.88C6.23006 8.14787 6.12194 8.40963 6.06102 8.66043C5.73983 9.98259 6.73001 11 8.01314 11C9.26872 11 10.1166 9.86453 9.95421 8.66043C9.91907 8.3999 9.83662 8.13615 9.70077 7.88M6.02627 9.5H10" stroke="white"/>
</svg>
