<svg width="143" height="102" viewBox="0 0 143 102" fill="none" xmlns="http://www.w3.org/2000/svg">
<mask id="mask0_10_2607" style="mask-type:luminance" maskUnits="userSpaceOnUse" x="0" y="0" width="143" height="102">
<path d="M142.947 0.0527344H0.0527344V101.105H142.947V0.0527344Z" fill="white"/>
</mask>
<g mask="url(#mask0_10_2607)">
<path d="M58.946 41.3353C58.946 18.5404 77.4915 0.0527344 100.358 0.0527344C123.224 0.0527344 141.769 18.5404 141.769 41.3353C141.769 68.9675 117.906 79.5032 101.886 100.111C101.421 100.708 101.022 101.039 100.358 101.039C99.6926 101.039 99.2938 100.641 98.8286 100.111C82.8091 79.4372 58.946 68.9675 58.946 41.3353ZM52.6313 41.3353C52.6313 33.3837 54.6255 25.8957 58.082 19.2693C58.5472 18.4079 58.3478 17.2814 57.6165 16.6187C52.5646 11.8477 47.5128 6.81167 42.9929 1.04669C42.5277 0.45032 42.1289 0.119 41.4643 0.119C40.7993 0.119 40.4005 0.516582 39.9353 1.04669C23.9823 21.7211 0.0527344 32.1906 0.0527344 59.8228C0.0527344 82.6178 18.5981 101.105 41.4643 101.105C54.4261 101.105 65.9253 95.208 73.5032 85.9311C74.2345 85.0696 74.1678 83.7442 73.3038 82.9491C62.4688 72.1481 52.6313 60.2867 52.6313 41.3353Z" fill="#F73232"/>
</g>
</svg>
