<svg width="16" height="16" viewBox="0 0 16 16" fill="none" xmlns="http://www.w3.org/2000/svg">
<circle cx="8" cy="8" r="8" fill="#F9DA62"/>
<path d="M8.02616 10C6.93723 10 6.05797 9.77899 6.00275 9.05217C5.94313 10.1783 6.86563 11 8.02625 11C9.21685 11 10.0433 9.99219 9.99825 8.86866C9.95619 9.63344 9.15478 10 8.02616 10Z" fill="white"/>
<path d="M6.39487 7.88L8.02669 5L9.72487 7.88M6.39487 7.88C6.14435 8.29094 6.02206 8.68752 6.00275 9.05217M6.39487 7.88C6.09655 8.36933 5.98006 8.75347 6.00275 9.05217M9.72487 7.88C9.89819 8.20469 9.98515 8.54158 9.99825 8.86866M9.72487 7.88C9.92918 8.26274 10.0135 8.5918 9.99825 8.86866M6.00275 9.05217C6.05797 9.77899 6.93723 10 8.02616 10C9.15478 10 9.95619 9.63344 9.99825 8.86866M6.00275 9.05217C5.94313 10.1783 6.86563 11 8.02625 11C9.21685 11 10.0433 9.99219 9.99825 8.86866" stroke="white"/>
</svg>
