<svg width="16" height="16" viewBox="0 0 16 16" fill="none" xmlns="http://www.w3.org/2000/svg">
<circle cx="8" cy="8" r="8" fill="#FD7326"/>
<path d="M8.02668 5L6.39486 7.88C6.26607 8.09126 6.17116 8.29872 6.10672 8.5H9.95218C9.90833 8.29215 9.8336 8.08368 9.72487 7.88L8.02668 5Z" fill="white"/>
<path d="M6.10672 8.5C6.17116 8.29872 6.26607 8.09126 6.39486 7.88L8.02668 5L9.72487 7.88C9.8336 8.08368 9.90833 8.29215 9.95218 8.5M6.10672 8.5C5.98262 8.88765 5.97149 9.25236 6.04882 9.57711C6.25066 10.4247 7.05509 11 8.02625 11C8.95752 11 9.66598 10.3834 9.90888 9.57711C10.0102 9.24076 10.0305 8.87139 9.95218 8.5M6.10672 8.5H9.95218" stroke="white"/>
</svg>
